<svg width="1756" height="364" viewBox="0 0 1756 364" fill="none" xmlns="http://www.w3.org/2000/svg">
<path fill-rule="evenodd" clip-rule="evenodd" d="M287.892 253.951C321.823 204.132 316.696 135.677 272.509 91.4904C222.522 41.5032 141.477 41.5032 91.4901 91.4904C41.5029 141.477 41.5029 222.523 91.4901 272.51C139.577 320.597 216.407 322.425 266.679 277.993L248.533 259.847C208.301 294.307 147.678 292.494 109.592 254.408C69.6023 214.418 69.6023 149.582 109.592 109.592C149.582 69.6026 214.418 69.6026 254.408 109.592C288.553 143.738 293.543 195.997 269.378 235.437L287.892 253.951Z" fill="#142430"/>
<ellipse cx="182" cy="182" rx="64" ry="64" transform="rotate(-45 182 182)" fill="#348EC9"/>
<path d="M378.488 271.56C363.469 271.56 351.352 266.525 342.136 256.456C332.92 246.387 328.312 232.136 328.312 213.704V142.28C328.312 140.403 328.909 138.867 330.104 137.672C331.469 136.477 333.005 135.88 334.712 135.88H368.76C370.637 135.88 372.173 136.477 373.368 137.672C374.733 138.867 375.416 140.403 375.416 142.28V212.168C375.416 228.04 382.499 235.976 396.664 235.976C403.491 235.976 408.781 233.928 412.536 229.832C416.461 225.565 418.424 219.677 418.424 212.168V142.28C418.424 140.403 419.021 138.867 420.216 137.672C421.581 136.477 423.203 135.88 425.08 135.88H458.872C460.749 135.88 462.285 136.477 463.48 137.672C464.675 138.867 465.272 140.403 465.272 142.28V262.6C465.272 264.307 464.675 265.843 463.48 267.208C462.285 268.403 460.749 269 458.872 269H427.64C425.763 269 424.141 268.403 422.776 267.208C421.581 266.013 420.984 264.477 420.984 262.6V252.872C412.109 265.331 397.944 271.56 378.488 271.56ZM534.534 271.56C525.489 271.56 517.211 269.853 509.702 266.44C502.363 262.856 496.561 257.992 492.294 251.848C488.198 245.704 486.15 238.963 486.15 231.624C486.15 220.019 490.929 210.632 500.486 203.464C510.214 196.125 523.526 191.091 540.422 188.36L572.166 183.496V180.424C572.166 174.109 570.886 169.501 568.326 166.6C565.766 163.699 561.414 162.248 555.27 162.248C551.857 162.248 548.955 162.845 546.566 164.04C544.347 165.235 541.787 167.027 538.886 169.416C536.667 171.293 534.705 172.659 532.998 173.512C532.315 174.707 531.462 175.304 530.438 175.304H500.742C499.035 175.304 497.585 174.792 496.39 173.768C495.366 172.573 494.939 171.208 495.11 169.672C495.281 165.064 497.585 159.944 502.022 154.312C506.459 148.509 513.201 143.56 522.246 139.464C531.291 135.368 542.47 133.32 555.782 133.32C576.945 133.32 592.646 138.013 602.886 147.4C613.126 156.616 618.246 169.16 618.246 185.032V262.6C618.246 264.307 617.649 265.843 616.454 267.208C615.259 268.403 613.723 269 611.846 269H580.358C578.651 269 577.115 268.403 575.75 267.208C574.555 265.843 573.958 264.307 573.958 262.6V253.64C570.203 258.931 564.998 263.283 558.342 266.696C551.686 269.939 543.75 271.56 534.534 271.56ZM547.334 241.352C554.843 241.352 560.902 238.877 565.51 233.928C570.289 228.979 572.678 221.811 572.678 212.424V209.352L551.43 212.936C537.094 215.667 529.926 220.787 529.926 228.296C529.926 232.221 531.547 235.379 534.79 237.768C538.203 240.157 542.385 241.352 547.334 241.352ZM652.492 269C650.785 269 649.249 268.403 647.884 267.208C646.689 265.843 646.092 264.307 646.092 262.6V142.536C646.092 140.659 646.689 139.123 647.884 137.928C649.079 136.563 650.615 135.88 652.492 135.88H683.724C685.601 135.88 687.137 136.563 688.332 137.928C689.697 139.123 690.38 140.659 690.38 142.536V152.264C695.159 146.973 700.705 142.963 707.02 140.232C713.505 137.331 720.673 135.88 728.524 135.88H740.044C741.921 135.88 743.457 136.477 744.652 137.672C745.847 138.867 746.444 140.403 746.444 142.28V170.184C746.444 171.891 745.847 173.427 744.652 174.792C743.457 175.987 741.921 176.584 740.044 176.584H714.188C707.361 176.584 702.071 178.461 698.316 182.216C694.732 185.971 692.94 191.261 692.94 198.088V262.6C692.94 264.477 692.257 266.013 690.892 267.208C689.697 268.403 688.161 269 686.284 269H652.492ZM770.748 269C768.871 269 767.249 268.403 765.884 267.208C764.689 266.013 764.092 264.477 764.092 262.6V93.64C764.092 91.7627 764.689 90.2267 765.884 89.032C767.249 87.8373 768.871 87.24 770.748 87.24H801.98C803.857 87.24 805.393 87.8373 806.588 89.032C807.783 90.2267 808.38 91.7627 808.38 93.64V179.144L842.428 140.232C842.769 139.891 843.367 139.293 844.22 138.44C845.244 137.587 846.268 136.989 847.292 136.648C848.316 136.136 849.596 135.88 851.132 135.88H887.228C888.764 135.88 890.044 136.477 891.068 137.672C892.263 138.696 892.86 140.061 892.86 141.768C892.86 143.304 892.263 144.669 891.068 145.864L846.012 195.528L897.468 259.272C898.663 260.808 899.26 262.088 899.26 263.112C899.26 264.819 898.663 266.269 897.468 267.464C896.444 268.488 895.079 269 893.372 269H856.252C854.033 269 852.327 268.659 851.132 267.976C850.108 267.293 848.828 266.184 847.292 264.648L808.38 216.52V262.6C808.38 264.307 807.783 265.843 806.588 267.208C805.393 268.403 803.857 269 801.98 269H770.748ZM968.4 271.56C954.405 271.56 942.715 269.597 933.328 265.672C923.941 261.747 916.944 257.053 912.336 251.592C907.899 246.131 905.68 241.181 905.68 236.744C905.68 235.037 906.277 233.672 907.472 232.648C908.837 231.453 910.288 230.856 911.824 230.856H942.8C943.824 230.856 944.677 231.197 945.36 231.88C948.261 233.757 949.883 234.867 950.224 235.208C953.467 237.597 956.453 239.475 959.184 240.84C962.085 242.035 965.499 242.632 969.424 242.632C974.032 242.632 977.787 241.779 980.688 240.072C983.76 238.195 985.296 235.635 985.296 232.392C985.296 229.661 984.443 227.443 982.736 225.736C981.2 224.029 978.128 222.408 973.52 220.872C969.083 219.165 962.256 217.459 953.04 215.752C923.515 209.779 908.752 196.125 908.752 174.792C908.752 167.795 910.971 161.139 915.408 154.824C920.016 148.339 926.672 143.133 935.376 139.208C944.251 135.283 954.832 133.32 967.12 133.32C979.579 133.32 990.331 135.283 999.376 139.208C1008.59 142.963 1015.59 147.571 1020.37 153.032C1025.15 158.323 1027.54 163.187 1027.54 167.624C1027.54 169.16 1026.94 170.525 1025.74 171.72C1024.72 172.915 1023.44 173.512 1021.9 173.512H993.744C992.208 173.512 991.013 173.171 990.16 172.488C988.112 171.464 986.064 170.184 984.016 168.648C980.944 166.6 978.213 165.064 975.824 164.04C973.605 162.845 970.704 162.248 967.12 162.248C962.853 162.248 959.525 163.187 957.136 165.064C954.747 166.941 953.552 169.331 953.552 172.232C953.552 174.792 954.235 176.925 955.6 178.632C957.136 180.168 960.123 181.704 964.56 183.24C969.168 184.776 976.08 186.397 985.296 188.104C1002.02 191.005 1014.14 196.211 1021.65 203.72C1029.33 211.059 1033.17 219.677 1033.17 229.576C1033.17 242.376 1027.45 252.616 1016.02 260.296C1004.75 267.805 988.88 271.56 968.4 271.56ZM1103.99 271.56C1088.97 271.56 1076.85 266.525 1067.64 256.456C1058.42 246.387 1053.81 232.136 1053.81 213.704V142.28C1053.81 140.403 1054.41 138.867 1055.6 137.672C1056.97 136.477 1058.51 135.88 1060.21 135.88H1094.26C1096.14 135.88 1097.67 136.477 1098.87 137.672C1100.23 138.867 1100.92 140.403 1100.92 142.28V212.168C1100.92 228.04 1108 235.976 1122.16 235.976C1128.99 235.976 1134.28 233.928 1138.04 229.832C1141.96 225.565 1143.92 219.677 1143.92 212.168V142.28C1143.92 140.403 1144.52 138.867 1145.72 137.672C1147.08 136.477 1148.7 135.88 1150.58 135.88H1184.37C1186.25 135.88 1187.79 136.477 1188.98 137.672C1190.17 138.867 1190.77 140.403 1190.77 142.28V262.6C1190.77 264.307 1190.17 265.843 1188.98 267.208C1187.79 268.403 1186.25 269 1184.37 269H1153.14C1151.26 269 1149.64 268.403 1148.28 267.208C1147.08 266.013 1146.48 264.477 1146.48 262.6V252.872C1137.61 265.331 1123.44 271.56 1103.99 271.56ZM1226.24 117.448C1224.36 117.448 1222.83 116.851 1221.63 115.656C1220.44 114.291 1219.84 112.669 1219.84 110.792V86.984C1219.84 85.1067 1220.44 83.5707 1221.63 82.376C1223 81.0107 1224.54 80.328 1226.24 80.328H1258.24C1260.12 80.328 1261.66 81.0107 1262.85 82.376C1264.22 83.5707 1264.9 85.1067 1264.9 86.984V110.792C1264.9 112.669 1264.22 114.291 1262.85 115.656C1261.66 116.851 1260.12 117.448 1258.24 117.448H1226.24ZM1226.24 269C1224.54 269 1223 268.403 1221.63 267.208C1220.44 265.843 1219.84 264.307 1219.84 262.6V142.28C1219.84 140.403 1220.44 138.867 1221.63 137.672C1223 136.477 1224.54 135.88 1226.24 135.88H1258.24C1260.12 135.88 1261.66 136.477 1262.85 137.672C1264.22 138.867 1264.9 140.403 1264.9 142.28V262.6C1264.9 264.477 1264.22 266.013 1262.85 267.208C1261.66 268.403 1260.12 269 1258.24 269H1226.24ZM1363.98 269C1327.8 269 1309.71 252.019 1309.71 218.056V170.696H1289.48C1287.78 170.696 1286.24 170.099 1284.88 168.904C1283.68 167.539 1283.08 166.003 1283.08 164.296V142.28C1283.08 140.403 1283.68 138.867 1284.88 137.672C1286.24 136.477 1287.78 135.88 1289.48 135.88H1309.71V93.64C1309.71 91.7627 1310.31 90.2267 1311.5 89.032C1312.87 87.8373 1314.4 87.24 1316.11 87.24H1347.6C1349.47 87.24 1351.01 87.8373 1352.2 89.032C1353.4 90.2267 1354 91.7627 1354 93.64V135.88H1386C1387.87 135.88 1389.41 136.477 1390.6 137.672C1391.97 138.867 1392.65 140.403 1392.65 142.28V164.296C1392.65 166.173 1391.97 167.709 1390.6 168.904C1389.41 170.099 1387.87 170.696 1386 170.696H1354V214.216C1354 220.189 1355.11 224.712 1357.32 227.784C1359.54 230.856 1363.13 232.392 1368.08 232.392H1388.3C1390.18 232.392 1391.71 233.075 1392.91 234.44C1394.1 235.635 1394.7 237.171 1394.7 239.048V262.6C1394.7 264.307 1394.1 265.843 1392.91 267.208C1391.71 268.403 1390.18 269 1388.3 269H1363.98Z" fill="#142430"/>
<path fill-rule="evenodd" clip-rule="evenodd" d="M1665.75 158C1654.52 98.7794 1602.49 54 1540 54C1469.31 54 1412 111.308 1412 182C1412 252.693 1469.31 310 1540 310C1608.01 310 1663.62 256.966 1667.75 190L1642.09 190C1638.01 242.815 1593.86 284.4 1540 284.4C1483.45 284.4 1437.6 238.554 1437.6 182C1437.6 125.446 1483.45 79.6 1540 79.6C1588.29 79.6 1628.77 113.025 1639.57 158L1665.75 158Z" fill="#142430"/>
<circle cx="1540" cy="182" r="64" transform="rotate(-90 1540 182)" fill="#C9348E"/>
</svg>
