<svg width="364" height="364" viewBox="0 0 364 364" fill="none" xmlns="http://www.w3.org/2000/svg">
<path fill-rule="evenodd" clip-rule="evenodd" d="M287.892 253.951C321.823 204.132 316.696 135.677 272.509 91.4904C222.522 41.5032 141.477 41.5032 91.4901 91.4904C41.5029 141.477 41.5029 222.523 91.4901 272.51C139.577 320.597 216.407 322.425 266.679 277.993L248.533 259.847C208.301 294.307 147.678 292.494 109.592 254.408C69.6023 214.418 69.6023 149.582 109.592 109.592C149.582 69.6026 214.418 69.6026 254.408 109.592C288.553 143.738 293.543 195.997 269.378 235.437L287.892 253.951Z" fill="#142430"/>
<ellipse cx="182" cy="182" rx="64" ry="64" transform="rotate(-45 182 182)" fill="#348EC9"/>
</svg>
