<svg width="1756" height="363" viewBox="0 0 1756 363" fill="none" xmlns="http://www.w3.org/2000/svg">
<path fill-rule="evenodd" clip-rule="evenodd" d="M287.892 252.97C321.823 203.151 316.696 134.696 272.509 90.5097C222.522 40.5226 141.477 40.5226 91.4901 90.5097C41.5029 140.497 41.5029 221.542 91.4901 271.529C139.577 319.616 216.407 321.444 266.679 277.012L248.533 258.866C208.301 293.326 147.678 291.513 109.592 253.427C69.6023 213.437 69.6023 148.601 109.592 108.612C149.582 68.6219 214.418 68.6219 254.408 108.612C288.553 142.757 293.543 195.017 269.378 234.457L287.892 252.97Z" fill="#142430"/>
<ellipse cx="182" cy="181.019" rx="64" ry="64" transform="rotate(-45 182 181.019)" fill="#142430"/>
<path d="M378.488 270.579C363.469 270.579 351.352 265.545 342.136 255.475C332.92 245.406 328.312 231.155 328.312 212.723V141.299C328.312 139.422 328.909 137.886 330.104 136.691C331.469 135.497 333.005 134.899 334.712 134.899H368.76C370.637 134.899 372.173 135.497 373.368 136.691C374.733 137.886 375.416 139.422 375.416 141.299V211.187C375.416 227.059 382.499 234.995 396.664 234.995C403.491 234.995 408.781 232.947 412.536 228.851C416.461 224.585 418.424 218.697 418.424 211.187V141.299C418.424 139.422 419.021 137.886 420.216 136.691C421.581 135.497 423.203 134.899 425.08 134.899H458.872C460.749 134.899 462.285 135.497 463.48 136.691C464.675 137.886 465.272 139.422 465.272 141.299V261.619C465.272 263.326 464.675 264.862 463.48 266.227C462.285 267.422 460.749 268.019 458.872 268.019H427.64C425.763 268.019 424.141 267.422 422.776 266.227C421.581 265.033 420.984 263.497 420.984 261.619V251.891C412.109 264.35 397.944 270.579 378.488 270.579ZM534.534 270.579C525.489 270.579 517.211 268.873 509.702 265.459C502.363 261.875 496.561 257.011 492.294 250.867C488.198 244.723 486.15 237.982 486.15 230.643C486.15 219.038 490.929 209.651 500.486 202.483C510.214 195.145 523.526 190.11 540.422 187.379L572.166 182.515V179.443C572.166 173.129 570.886 168.521 568.326 165.619C565.766 162.718 561.414 161.267 555.27 161.267C551.857 161.267 548.955 161.865 546.566 163.059C544.347 164.254 541.787 166.046 538.886 168.435C536.667 170.313 534.705 171.678 532.998 172.531C532.315 173.726 531.462 174.323 530.438 174.323H500.742C499.035 174.323 497.585 173.811 496.39 172.787C495.366 171.593 494.939 170.227 495.11 168.691C495.281 164.083 497.585 158.963 502.022 153.331C506.459 147.529 513.201 142.579 522.246 138.483C531.291 134.387 542.47 132.339 555.782 132.339C576.945 132.339 592.646 137.033 602.886 146.419C613.126 155.635 618.246 168.179 618.246 184.051V261.619C618.246 263.326 617.649 264.862 616.454 266.227C615.259 267.422 613.723 268.019 611.846 268.019H580.358C578.651 268.019 577.115 267.422 575.75 266.227C574.555 264.862 573.958 263.326 573.958 261.619V252.659C570.203 257.95 564.998 262.302 558.342 265.715C551.686 268.958 543.75 270.579 534.534 270.579ZM547.334 240.371C554.843 240.371 560.902 237.897 565.51 232.947C570.289 227.998 572.678 220.83 572.678 211.443V208.371L551.43 211.955C537.094 214.686 529.926 219.806 529.926 227.315C529.926 231.241 531.547 234.398 534.79 236.787C538.203 239.177 542.385 240.371 547.334 240.371ZM652.492 268.019C650.785 268.019 649.249 267.422 647.884 266.227C646.689 264.862 646.092 263.326 646.092 261.619V141.555C646.092 139.678 646.689 138.142 647.884 136.947C649.079 135.582 650.615 134.899 652.492 134.899H683.724C685.601 134.899 687.137 135.582 688.332 136.947C689.697 138.142 690.38 139.678 690.38 141.555V151.283C695.159 145.993 700.705 141.982 707.02 139.251C713.505 136.35 720.673 134.899 728.524 134.899H740.044C741.921 134.899 743.457 135.497 744.652 136.691C745.847 137.886 746.444 139.422 746.444 141.299V169.203C746.444 170.91 745.847 172.446 744.652 173.811C743.457 175.006 741.921 175.603 740.044 175.603H714.188C707.361 175.603 702.071 177.481 698.316 181.235C694.732 184.99 692.94 190.281 692.94 197.107V261.619C692.94 263.497 692.257 265.033 690.892 266.227C689.697 267.422 688.161 268.019 686.284 268.019H652.492ZM770.748 268.019C768.871 268.019 767.249 267.422 765.884 266.227C764.689 265.033 764.092 263.497 764.092 261.619V92.6593C764.092 90.782 764.689 89.246 765.884 88.0513C767.249 86.8567 768.871 86.2593 770.748 86.2593H801.98C803.857 86.2593 805.393 86.8567 806.588 88.0513C807.783 89.246 808.38 90.782 808.38 92.6593V178.163L842.428 139.251C842.769 138.91 843.367 138.313 844.22 137.459C845.244 136.606 846.268 136.009 847.292 135.667C848.316 135.155 849.596 134.899 851.132 134.899H887.228C888.764 134.899 890.044 135.497 891.068 136.691C892.263 137.715 892.86 139.081 892.86 140.787C892.86 142.323 892.263 143.689 891.068 144.883L846.012 194.547L897.468 258.291C898.663 259.827 899.26 261.107 899.26 262.131C899.26 263.838 898.663 265.289 897.468 266.483C896.444 267.507 895.079 268.019 893.372 268.019H856.252C854.033 268.019 852.327 267.678 851.132 266.995C850.108 266.313 848.828 265.203 847.292 263.667L808.38 215.539V261.619C808.38 263.326 807.783 264.862 806.588 266.227C805.393 267.422 803.857 268.019 801.98 268.019H770.748ZM968.4 270.579C954.405 270.579 942.715 268.617 933.328 264.691C923.941 260.766 916.944 256.073 912.336 250.611C907.899 245.15 905.68 240.201 905.68 235.763C905.68 234.057 906.277 232.691 907.472 231.667C908.837 230.473 910.288 229.875 911.824 229.875H942.8C943.824 229.875 944.677 230.217 945.36 230.899C948.261 232.777 949.883 233.886 950.224 234.227C953.467 236.617 956.453 238.494 959.184 239.859C962.085 241.054 965.499 241.651 969.424 241.651C974.032 241.651 977.787 240.798 980.688 239.091C983.76 237.214 985.296 234.654 985.296 231.411C985.296 228.681 984.443 226.462 982.736 224.755C981.2 223.049 978.128 221.427 973.52 219.891C969.083 218.185 962.256 216.478 953.04 214.771C923.515 208.798 908.752 195.145 908.752 173.811C908.752 166.814 910.971 160.158 915.408 153.843C920.016 147.358 926.672 142.153 935.376 138.227C944.251 134.302 954.832 132.339 967.12 132.339C979.579 132.339 990.331 134.302 999.376 138.227C1008.59 141.982 1015.59 146.59 1020.37 152.051C1025.15 157.342 1027.54 162.206 1027.54 166.643C1027.54 168.179 1026.94 169.545 1025.74 170.739C1024.72 171.934 1023.44 172.531 1021.9 172.531H993.744C992.208 172.531 991.013 172.19 990.16 171.507C988.112 170.483 986.064 169.203 984.016 167.667C980.944 165.619 978.213 164.083 975.824 163.059C973.605 161.865 970.704 161.267 967.12 161.267C962.853 161.267 959.525 162.206 957.136 164.083C954.747 165.961 953.552 168.35 953.552 171.251C953.552 173.811 954.235 175.945 955.6 177.651C957.136 179.187 960.123 180.723 964.56 182.259C969.168 183.795 976.08 185.417 985.296 187.123C1002.02 190.025 1014.14 195.23 1021.65 202.739C1029.33 210.078 1033.17 218.697 1033.17 228.595C1033.17 241.395 1027.45 251.635 1016.02 259.315C1004.75 266.825 988.88 270.579 968.4 270.579ZM1103.99 270.579C1088.97 270.579 1076.85 265.545 1067.64 255.475C1058.42 245.406 1053.81 231.155 1053.81 212.723V141.299C1053.81 139.422 1054.41 137.886 1055.6 136.691C1056.97 135.497 1058.51 134.899 1060.21 134.899H1094.26C1096.14 134.899 1097.67 135.497 1098.87 136.691C1100.23 137.886 1100.92 139.422 1100.92 141.299V211.187C1100.92 227.059 1108 234.995 1122.16 234.995C1128.99 234.995 1134.28 232.947 1138.04 228.851C1141.96 224.585 1143.92 218.697 1143.92 211.187V141.299C1143.92 139.422 1144.52 137.886 1145.72 136.691C1147.08 135.497 1148.7 134.899 1150.58 134.899H1184.37C1186.25 134.899 1187.79 135.497 1188.98 136.691C1190.17 137.886 1190.77 139.422 1190.77 141.299V261.619C1190.77 263.326 1190.17 264.862 1188.98 266.227C1187.79 267.422 1186.25 268.019 1184.37 268.019H1153.14C1151.26 268.019 1149.64 267.422 1148.28 266.227C1147.08 265.033 1146.48 263.497 1146.48 261.619V251.891C1137.61 264.35 1123.44 270.579 1103.99 270.579ZM1226.24 116.467C1224.36 116.467 1222.83 115.87 1221.63 114.675C1220.44 113.31 1219.84 111.689 1219.84 109.811V86.0033C1219.84 84.126 1220.44 82.59 1221.63 81.3953C1223 80.03 1224.54 79.3473 1226.24 79.3473H1258.24C1260.12 79.3473 1261.66 80.03 1262.85 81.3953C1264.22 82.59 1264.9 84.126 1264.9 86.0033V109.811C1264.9 111.689 1264.22 113.31 1262.85 114.675C1261.66 115.87 1260.12 116.467 1258.24 116.467H1226.24ZM1226.24 268.019C1224.54 268.019 1223 267.422 1221.63 266.227C1220.44 264.862 1219.84 263.326 1219.84 261.619V141.299C1219.84 139.422 1220.44 137.886 1221.63 136.691C1223 135.497 1224.54 134.899 1226.24 134.899H1258.24C1260.12 134.899 1261.66 135.497 1262.85 136.691C1264.22 137.886 1264.9 139.422 1264.9 141.299V261.619C1264.9 263.497 1264.22 265.033 1262.85 266.227C1261.66 267.422 1260.12 268.019 1258.24 268.019H1226.24ZM1363.98 268.019C1327.8 268.019 1309.71 251.038 1309.71 217.075V169.715H1289.48C1287.78 169.715 1286.24 169.118 1284.88 167.923C1283.68 166.558 1283.08 165.022 1283.08 163.315V141.299C1283.08 139.422 1283.68 137.886 1284.88 136.691C1286.24 135.497 1287.78 134.899 1289.48 134.899H1309.71V92.6593C1309.71 90.782 1310.31 89.246 1311.5 88.0513C1312.87 86.8567 1314.4 86.2593 1316.11 86.2593H1347.6C1349.47 86.2593 1351.01 86.8567 1352.2 88.0513C1353.4 89.246 1354 90.782 1354 92.6593V134.899H1386C1387.87 134.899 1389.41 135.497 1390.6 136.691C1391.97 137.886 1392.65 139.422 1392.65 141.299V163.315C1392.65 165.193 1391.97 166.729 1390.6 167.923C1389.41 169.118 1387.87 169.715 1386 169.715H1354V213.235C1354 219.209 1355.11 223.731 1357.32 226.803C1359.54 229.875 1363.13 231.411 1368.08 231.411H1388.3C1390.18 231.411 1391.71 232.094 1392.91 233.459C1394.1 234.654 1394.7 236.19 1394.7 238.067V261.619C1394.7 263.326 1394.1 264.862 1392.91 266.227C1391.71 267.422 1390.18 268.019 1388.3 268.019H1363.98Z" fill="#142430"/>
<path fill-rule="evenodd" clip-rule="evenodd" d="M1665.75 157.019C1654.52 97.7987 1602.49 53.0193 1540 53.0193C1469.31 53.0193 1412 110.327 1412 181.019C1412 251.712 1469.31 309.019 1540 309.019C1608.01 309.019 1663.62 255.985 1667.75 189.019L1642.09 189.019C1638.01 241.834 1593.86 283.419 1540 283.419C1483.45 283.419 1437.6 237.573 1437.6 181.019C1437.6 124.465 1483.45 78.6194 1540 78.6194C1588.29 78.6193 1628.77 112.044 1639.57 157.019L1665.75 157.019Z" fill="#142430"/>
<circle cx="1540" cy="181.019" r="64" transform="rotate(-90 1540 181.019)" fill="#142430"/>
</svg>
